{
  "accessors": [
    {
      "bufferView": 1,
      "componentType": 5126,
      "type": "VEC3",
      "count": 2580,
      "min": [-10, -3, 5],
      "max": [10, 5, 24]
    },
    {
      "bufferView": 1,
      "componentType": 5126,
      "type": "VEC3",
      "byteOffset": 12,
      "count": 2580
    },
    {
      "bufferView": 1,
      "componentType": 5126,
      "type": "VEC2",
      "byteOffset": 24,
      "count": 2580
    },
    {
      "bufferView": 2,
      "componentType": 5125,
      "type": "SCALAR",
      "count": 7656
    },
    {
      "bufferView": 3,
      "componentType": 5126,
      "type": "VEC3",
      "count": 932,
      "min": [-9, -2, 14],
      "max": [9, 4, 23]
    },
    {
      "bufferView": 3,
      "componentType": 5126,
      "type": "VEC3",
      "byteOffset": 12,
      "count": 932
    },
    {
      "bufferView": 3,
      "componentType": 5126,
      "type": "VEC2",
      "byteOffset": 24,
      "count": 932
    },
    {
      "bufferView": 4,
      "componentType": 5125,
      "type": "SCALAR",
      "count": 3456
    },
    {
      "bufferView": 5,
      "componentType": 5126,
      "type": "VEC3",
      "count": 198,
      "min": [-4, 1, 10],
      "max": [4, 3, 14]
    },
    {
      "bufferView": 5,
      "componentType": 5126,
      "type": "VEC3",
      "byteOffset": 12,
      "count": 198
    },
    {
      "bufferView": 5,
      "componentType": 5126,
      "type": "VEC2",
      "byteOffset": 24,
      "count": 198
    },
    {
      "bufferView": 6,
      "componentType": 5125,
      "type": "SCALAR",
      "count": 456
    },
    {
      "bufferView": 7,
      "componentType": 5126,
      "type": "VEC3",
      "count": 496,
      "min": [-7, 2, 7],
      "max": [7, 4, 14]
    },
    {
      "bufferView": 7,
      "componentType": 5126,
      "type": "VEC3",
      "byteOffset": 12,
      "count": 496
    },
    {
      "bufferView": 7,
      "componentType": 5126,
      "type": "VEC2",
      "byteOffset": 24,
      "count": 496
    },
    {
      "bufferView": 8,
      "componentType": 5125,
      "type": "SCALAR",
      "count": 972
    },
    {
      "bufferView": 9,
      "componentType": 5126,
      "type": "VEC3",
      "count": 1058,
      "min": [-9, -2, 6],
      "max": [9, 4, 14]
    },
    {
      "bufferView": 9,
      "componentType": 5126,
      "type": "VEC3",
      "byteOffset": 12,
      "count": 1058
    },
    {
      "bufferView": 9,
      "componentType": 5126,
      "type": "VEC2",
      "byteOffset": 24,
      "count": 1058
    },
    {
      "bufferView": 10,
      "componentType": 5125,
      "type": "SCALAR",
      "count": 3264
    }
  ],
  "asset": {
    "generator": "goxel",
    "version": "2.0"
  },
  "bufferViews": [
    {
      "buffer": 0,
      "byteLength": 203
    },
    {
      "buffer": 1,
      "byteLength": 103200,
      "byteStride": 40
    },
    {
      "buffer": 2,
      "byteLength": 30624
    },
    {
      "buffer": 3,
      "byteLength": 37280,
      "byteStride": 40
    },
    {
      "buffer": 4,
      "byteLength": 13824
    },
    {
      "buffer": 5,
      "byteLength": 7920,
      "byteStride": 40
    },
    {
      "buffer": 6,
      "byteLength": 1824
    },
    {
      "buffer": 7,
      "byteLength": 19840,
      "byteStride": 40
    },
    {
      "buffer": 8,
      "byteLength": 3888
    },
    {
      "buffer": 9,
      "byteLength": 42320,
      "byteStride": 40
    },
    {
      "buffer": 10,
      "byteLength": 13056
    }
  ],
  "buffers": [
    {
      "uri": "data:application/octet-stream;base64,",
      "byteLength": 203
    },
    {
      "uri": "data:application/octet-stream;base64,",
      "byteLength": 103200
    },
    {
      "uri": "data:application/octet-stream;base64,",
      "byteLength": 30624
    },
    {
      "uri": "data:application/octet-stream;base64,",
      "byteLength": 37280
    },
    {
      "uri": "data:application/octet-stream;base64,",
      "byteLength": 13824
    },
    {
      "uri": "data:application/octet-stream;base64,",
      "byteLength": 7920
    },
    {
      "uri": "data:application/octet-stream;base64,",
      "byteLength": 1824
    },
    {
      "uri": "data:application/octet-stream;base64,",
      "byteLength": 19840
    },
    {
      "uri": "data:application/octet-stream;base64,",
      "byteLength": 3888
    },
    {
      "uri": "data:application/octet-stream;base64,",
      "byteLength": 42320
    },
    {
      "uri": "data:application/octet-stream;base64,",
      "byteLength": 13056
    }
  ],
  "images": [
    {
      "bufferView": 0,
      "mimeType": "image/png"
    }
  ],
  "meshes": [
    {
      "primitives": [
        {
          "indices": 3,
          "material": 0,
          "attributes": {
            "POSITION": 0,
            "NORMAL": 1,
            "TEXCOORD_0": 2
          }
        }
      ]
    },
    {
      "primitives": [
        {
          "indices": 7,
          "material": 1,
          "attributes": {
            "POSITION": 4,
            "NORMAL": 5,
            "TEXCOORD_0": 6
          }
        }
      ]
    },
    {
      "primitives": [
        {
          "indices": 11,
          "material": 2,
          "attributes": {
            "POSITION": 8,
            "NORMAL": 9,
            "TEXCOORD_0": 10
          }
        }
      ]
    },
    {
      "primitives": [
        {
          "indices": 15,
          "material": 3,
          "attributes": {
            "POSITION": 12,
            "NORMAL": 13,
            "TEXCOORD_0": 14
          }
        }
      ]
    },
    {
      "primitives": [
        {
          "indices": 19,
          "material": 4,
          "attributes": {
            "POSITION": 16,
            "NORMAL": 17,
            "TEXCOORD_0": 18
          }
        }
      ]
    }
  ],
  "materials": [
    {
      "name": "Material.1",
      "pbrMetallicRoughness": {
        "baseColorTexture": {
          "index": 0
        },
        "metallicFactor": 0.200000003,
        "roughnessFactor": 0.800000012
      }
    },
    {
      "name": "Material.Pink",
      "pbrMetallicRoughness": {
        "baseColorTexture": {
          "index": 0
        },
        "metallicFactor": 0.200000003,
        "roughnessFactor": 0.800000012,
        "baseColorFactor": [0.806952417, 0.111932434, 0.152926177, 1]
      }
    },
    {
      "name": "Material.PaleYellow",
      "pbrMetallicRoughness": {
        "baseColorTexture": {
          "index": 0
        },
        "metallicFactor": 0.200000003,
        "roughnessFactor": 0.5,
        "baseColorFactor": [0.938685834, 0.921581984, 0.283148766, 1]
      }
    },
    {
      "name": "Material.Yellow",
      "pbrMetallicRoughness": {
        "baseColorTexture": {
          "index": 0
        },
        "metallicFactor": 0.200000003,
        "roughnessFactor": 0.5,
        "baseColorFactor": [0.938685834, 0.630757272, 0.0295568407, 1]
      }
    },
    {
      "name": "Material.Red",
      "pbrMetallicRoughness": {
        "baseColorTexture": {
          "index": 0
        },
        "metallicFactor": 0,
        "baseColorFactor": [0.871367276, 0, 0.0212190114, 1]
      }
    }
  ],
  "nodes": [
    {
      "children": [ 1, 2, 3, 4, 5 ],
      "matrix": [1, 0, 0, 0, 0, 0, -1, 0, 0, 1, 0, 0, 0, 0, 0, 1]
    },
    {
      "mesh": 0,
      "name": "Layer.WhiteBorder"
    },
    {
      "mesh": 1,
      "name": "Layer.PinkInside1"
    },
    {
      "mesh": 2,
      "name": "Layer.PaleYellow"
    },
    {
      "mesh": 3,
      "name": "Layer.Yellow"
    },
    {
      "mesh": 4,
      "name": "Layer.Red"
    }
  ],
  "scenes": [
    {
      "nodes": [ 0 ]
    }
  ],
  "textures": [
    {
      "source": 0
    }
  ]
}
